<?xml version="1.0" encoding="us-ascii" standalone="no"?><svg xmlns="http://www.w3.org/2000/svg" xmlns:xlink="http://www.w3.org/1999/xlink" contentStyleType="text/css" height="181px" preserveAspectRatio="none" style="width:686px;height:181px;background:#FFFFFF;" version="1.1" viewBox="0 0 686 181" width="686px" zoomAndPan="magnify"><defs/><g><!--cluster Export de donn?es de sant?--><g id="cluster_Export de donn&#233;es de sant&#233;"><path d="M8.5,6 L208.5,6 A3.75,3.75 0 0 1 211,8.5 L218,29.6094 L676.5,29.6094 A2.5,2.5 0 0 1 679,32.1094 L679,171.5 A2.5,2.5 0 0 1 676.5,174 L8.5,174 A2.5,2.5 0 0 1 6,171.5 L6,8.5 A2.5,2.5 0 0 1 8.5,6 " fill="#FFF5EE" style="stroke:#000000;stroke-width:1.5;"/><line style="stroke:#000000;stroke-width:1.5;" x1="6" x2="218" y1="29.6094" y2="29.6094"/><text fill="#000000" font-family="sans-serif" font-size="14" font-weight="bold" lengthAdjust="spacing" textLength="199" x="10" y="22.5332">Export de donn&#233;es de sant&#233;</text></g><!--cluster Portabilit? de donn?es LGC--><g id="cluster_Portabilit&#233; de donn&#233;es LGC"><path d="M371.5,50 L565.5,50 A3.75,3.75 0 0 1 568,52.5 L575,73.6094 L652.5,73.6094 A2.5,2.5 0 0 1 655,76.1094 L655,147.5 A2.5,2.5 0 0 1 652.5,150 L371.5,150 A2.5,2.5 0 0 1 369,147.5 L369,52.5 A2.5,2.5 0 0 1 371.5,50 " fill="#F0FFFF" style="stroke:#000000;stroke-width:1.5;"/><line style="stroke:#000000;stroke-width:1.5;" x1="369" x2="575" y1="73.6094" y2="73.6094"/><text fill="#000000" font-family="sans-serif" font-size="14" font-weight="bold" lengthAdjust="spacing" textLength="193" x="373" y="66.5332">Portabilit&#233; de donn&#233;es LGC</text></g><!--cluster Echanges de documents de Sant? via MSS--><g id="cluster_Echanges de documents de Sant&#233; via MSS"><path d="M32.5,50 L332.5,50 A3.75,3.75 0 0 1 335,52.5 L342,73.6094 L342.5,73.6094 A2.5,2.5 0 0 1 345,76.1094 L345,147.5 A2.5,2.5 0 0 1 342.5,150 L32.5,150 A2.5,2.5 0 0 1 30,147.5 L30,52.5 A2.5,2.5 0 0 1 32.5,50 " fill="#F0FFFF" style="stroke:#000000;stroke-width:1.5;"/><line style="stroke:#000000;stroke-width:1.5;" x1="30" x2="342" y1="73.6094" y2="73.6094"/><text fill="#000000" font-family="sans-serif" font-size="14" font-weight="bold" lengthAdjust="spacing" textLength="299" x="34" y="66.5332">Echanges de documents de Sant&#233; via MSS</text></g><!--entity Export d'archive de portabilite--><g id="elem_Export d'archive de portabilite"><rect fill="#87CEEB" height="47.6094" rx="2.5" ry="2.5" style="stroke:#000000;stroke-width:0.5;" width="253" x="385.5" y="86"/><rect fill="#87CEEB" height="10" style="stroke:#000000;stroke-width:0.5;" width="15" x="618.5" y="91"/><rect fill="#87CEEB" height="2" style="stroke:#000000;stroke-width:0.5;" width="4" x="616.5" y="93"/><rect fill="#87CEEB" height="2" style="stroke:#000000;stroke-width:0.5;" width="4" x="616.5" y="97"/><text fill="#000000" font-family="sans-serif" font-size="14" font-weight="bold" lengthAdjust="spacing" textLength="213" x="400.5" y="120.5332">Export d'archive de portabilite</text></g><!--entity Export d'archive XDM--><g id="elem_Export d'archive XDM"><rect fill="#87CEEB" height="47.6094" rx="2.5" ry="2.5" style="stroke:#000000;stroke-width:0.5;" width="191" x="91.5" y="86"/><rect fill="#87CEEB" height="10" style="stroke:#000000;stroke-width:0.5;" width="15" x="262.5" y="91"/><rect fill="#87CEEB" height="2" style="stroke:#000000;stroke-width:0.5;" width="4" x="260.5" y="93"/><rect fill="#87CEEB" height="2" style="stroke:#000000;stroke-width:0.5;" width="4" x="260.5" y="97"/><text fill="#000000" font-family="sans-serif" font-size="14" font-weight="bold" lengthAdjust="spacing" textLength="151" x="106.5" y="120.5332">Export d'archive XDM</text></g><!--SRC=[ZP1DQiGm38NtFeMOBdgEpa-xwK31cu4o2yKMYObZ6TiPcfOSQCun5wkIq32bctfZMNhlVSADimIvK28kGoIbSkj2n8GT6EuY1me5lXJ0bfEbj6FF2IgFffrwSjM9-s2N_eDkXwtlIKRF78ekWoUes5irAXL5Z3N1vl0HEHKGhkKGRbVAKvqnbDjr8nc4kI7l0MRkSbRpcrYnSjw9-5V4wyjEp4-VVQ8x7y3x3-uHasdSXIPNN5Fel6h7lxI3QJ3KouAMJT_9RymFFMyB5uTmrFgVuDF-U4yRrJS0]--></g></svg>